<!-- Generated by IcoMoon.io -->
<svg version="1.1" xmlns="http://www.w3.org/2000/svg" width="43" height="32" viewBox="0 0 43 32">
<title>click-icon</title>
<path d="M30.522 0.68c0.461-0.441 1.074-0.685 1.71-0.68s1.246 0.258 1.7 0.706c0.454 0.448 0.717 1.056 0.734 1.695s-0.214 1.26-0.644 1.732l-13.052 16.412c-0.224 0.243-0.495 0.438-0.796 0.573s-0.626 0.208-0.956 0.214c-0.33 0.006-0.657-0.055-0.963-0.179s-0.584-0.309-0.817-0.543l-8.656-8.702c-0.241-0.226-0.434-0.498-0.568-0.801s-0.206-0.629-0.212-0.96c-0.006-0.331 0.055-0.66 0.178-0.967s0.307-0.586 0.54-0.82c0.233-0.234 0.51-0.419 0.816-0.543s0.633-0.185 0.962-0.179c0.329 0.006 0.654 0.078 0.955 0.213s0.572 0.329 0.796 0.572l6.85 6.884 11.361-14.553c0.020-0.025 0.042-0.049 0.065-0.072h-0.003z"></path>
</svg>
